<?xml version="1.0" encoding="UTF-8" standalone="no"?>
<!-- Created with Inkscape (http://www.inkscape.org/) -->

<svg
   width="120"
   height="120"
   viewBox="0 0 31.75 31.75"
   version="1.1"
   id="svg5"
   inkscape:version="1.1 (1:1.1+202105261517+ce6663b3b7)"
   sodipodi:docname="back.svg"
   xmlns:inkscape="http://www.inkscape.org/namespaces/inkscape"
   xmlns:sodipodi="http://sodipodi.sourceforge.net/DTD/sodipodi-0.dtd"
   xmlns="http://www.w3.org/2000/svg"
   xmlns:svg="http://www.w3.org/2000/svg">
  <sodipodi:namedview
     id="namedview7"
     pagecolor="#ffffff"
     bordercolor="#666666"
     borderopacity="1.0"
     inkscape:pageshadow="2"
     inkscape:pageopacity="0.0"
     inkscape:pagecheckerboard="0"
     inkscape:document-units="px"
     showgrid="false"
     inkscape:zoom="3.5166667"
     inkscape:cx="-0.99526066"
     inkscape:cy="78.909953"
     inkscape:window-width="1878"
     inkscape:window-height="1016"
     inkscape:window-x="42"
     inkscape:window-y="27"
     inkscape:window-maximized="1"
     inkscape:current-layer="layer1" />
  <defs
     id="defs2">
    <inkscape:path-effect
       effect="bspline"
       id="path-effect892"
       is_visible="true"
       lpeversion="1"
       weight="33.333333"
       steps="2"
       helper_size="0"
       apply_no_weight="true"
       apply_with_weight="true"
       only_selected="false" />
  </defs>
  <g
     inkscape:label="Layer 1"
     inkscape:groupmode="layer"
     id="layer1">
    <path
       style="fill:none;stroke:#000000;stroke-width:0.462195px;stroke-linecap:butt;stroke-linejoin:miter;stroke-opacity:1"
       d="m 26.891861,23.97511 c -2.149278,-2.27979 -6.448289,-6.839849 -10.127972,-8.824364 -3.679684,-1.984514 -6.739766,-1.39297 -8.3276546,-0.05751 -1.5878887,1.33546 -1.7031862,3.414186 -1.7920161,4.444718 -0.08883,1.030532 -0.1517638,1.01317 -1.1729546,-0.07662 C 4.4500729,18.371541 2.4707639,16.209065 1.4109596,15.045341 0.35115516,13.881617 0.21091774,13.716679 0.23228474,13.423832 0.25365174,13.130986 0.43717097,12.710473 1.1422098,11.295605 1.8472486,9.8807366 3.0737554,7.4716561 3.7198028,6.3424742 4.3658502,5.2132922 4.4310306,5.363701 4.7948006,6.1103877 c 0.3637699,0.7466867 1.0260677,2.0895964 1.538445,2.7425463 0.5123773,0.65295 0.8747373,0.6165309 2.2125421,0.3891284 1.3378049,-0.2274025 3.6510043,-0.645751 6.5230033,0.1789792 2.871999,0.8247304 6.302391,2.8920894 9.158247,5.3699854 2.855856,2.477896 5.137139,5.365975 6.278586,6.814993 1.141448,1.449018 1.143321,1.458885 0.855152,1.79068 -0.288168,0.331795 -0.866154,0.986048 -1.254966,1.456337 -0.388811,0.470289 -0.588395,0.756519 -0.685092,0.925883 -0.0967,0.169365 -0.09068,0.221458 -0.136819,0.28103 -0.04614,0.05957 -0.144441,0.127236 -0.193602,0.161076 -0.04916,0.03384 -0.04916,0.03387 -2.198436,-2.245916 z"
       id="path890"
       inkscape:path-effect="#path-effect892"
       inkscape:original-d="M 29.04114,26.254899 C 24.742543,21.695358 20.443534,17.135297 16.14411,12.574722 13.084316,13.166807 10.024234,13.75835 6.9636752,14.349391 6.8487871,16.428719 6.7334893,18.507445 6.6177757,20.585697 6.5552687,20.568919 6.4923521,20.551494 6.4290194,20.533622 4.4500437,18.371568 2.4707329,16.209093 0.49096909,14.046057 0.35113992,13.88163 0.21090247,13.716692 0.07024841,13.551233 0.25418871,13.13122 0.43770776,12.710707 0.62081668,12.28967 1.8477863,9.8810104 3.0742931,7.4719299 4.3004103,5.0622847 4.3660087,5.2132235 4.4311907,5.3636316 4.4959609,5.5135326 5.1586989,6.8570111 5.8209962,8.199921 6.4828932,9.5423402 6.8456794,9.5064459 7.2080374,9.4700075 7.5699886,9.4330814 9.8836961,9.0152322 12.196896,8.5968845 14.509729,8.1780106 c 3.430943,2.0679564 6.861335,4.1353164 10.291381,6.2021984 2.281788,2.888711 4.56307,5.77679 6.843985,8.66441 0.0025,0.01032 0.0042,0.02022 0.0056,0.02951 -0.577598,0.654798 -1.155585,1.30905 -1.733999,1.962803 -0.199175,0.286758 -0.39876,0.572987 -0.59876,0.858705 0.0065,0.0526 0.01252,0.104693 0.01806,0.156263 -0.09787,0.06816 -0.196158,0.135838 -0.29486,0.202966 z" />
  </g>
</svg>
