<?xml version="1.0" encoding="UTF-8" standalone="no"?>
<!-- Generator: Adobe Illustrator 22.0.1, SVG Export Plug-In . SVG Version: 6.00 Build 0)  -->

<svg
   version="1.1"
   x="0px"
   y="0px"
   viewBox="0 0 500 500"
   style="enable-background:new 0 0 500 500;"
   xml:space="preserve"
   id="svg411"
   sodipodi:docname="shipbg.svg"
   inkscape:version="1.1 (1:1.1+202105261517+ce6663b3b7)"
   xmlns:inkscape="http://www.inkscape.org/namespaces/inkscape"
   xmlns:sodipodi="http://sodipodi.sourceforge.net/DTD/sodipodi-0.dtd"
   xmlns="http://www.w3.org/2000/svg"
   xmlns:svg="http://www.w3.org/2000/svg"><defs
   id="defs415">
		
	</defs><sodipodi:namedview
   id="namedview413"
   pagecolor="#ffffff"
   bordercolor="#666666"
   borderopacity="1.0"
   inkscape:pageshadow="2"
   inkscape:pageopacity="0.0"
   inkscape:pagecheckerboard="0"
   showgrid="false"
   inkscape:zoom="1.1935962"
   inkscape:cx="264.32724"
   inkscape:cy="297.83941"
   inkscape:window-width="1878"
   inkscape:window-height="1016"
   inkscape:window-x="42"
   inkscape:window-y="27"
   inkscape:window-maximized="1"
   inkscape:current-layer="g249" />
<style
   type="text/css"
   id="style2">
	.st0{display:none;}
	.st1{display:inline;fill:url(#SVGID_1_);}
	.st2{fill:#FFFFFF;}
	.st3{fill:#420102;}
	.st4{fill:#130000;}
	.st5{fill:#212121;}
	.st6{fill:#292929;}
	.st7{fill:#363636;}
	.st8{fill:#404040;}
	.st9{fill:#BF1533;}
	.st10{fill:#9A0419;}
	.st11{fill:#590000;}
	.st12{fill:#EE8900;}
	.st13{fill:#FCA600;}
	.st14{fill:#D23600;}
	.st15{fill:#D95100;}
	.st16{fill:#DE6D00;}
	.st17{fill:#FFBB00;}
	.st18{fill:#FFE554;}
	.st19{fill:#D19419;}
	.st20{fill:#FFCA01;}
	.st21{fill:#45BF55;}
	.st22{fill:#97ED8A;}
	.st23{fill:#00261C;}
	.st24{fill:#044D29;}
	.st25{fill:#168039;}
	.st26{fill:#B4DCED;}
	.st27{fill:#E8F8FF;}
	.st28{fill:#3399CC;}
	.st29{fill:#91C9E8;}
	.st30{fill:#446E9E;}
	.st31{fill:#335377;}
	.st32{fill:#233951;}
	.st33{fill:#5F9ADD;}
	.st34{fill:#3E6591;}
	.st35{fill:#7B52AB;}
	.st36{fill:#9768D1;}
	.st37{fill:#25064C;}
	.st38{fill:#36175E;}
	.st39{fill:#1C1C1C;}
	.st40{fill:none;stroke:#000000;stroke-width:2;stroke-miterlimit:10;}
	.st41{fill:#7B52AB;stroke:#000000;stroke-miterlimit:10;}
	.st42{fill:#212121;stroke:#000000;stroke-miterlimit:10;}
	.st43{fill:#363636;stroke:#000000;stroke-miterlimit:10;}
	.st44{fill:#404040;stroke:#000000;stroke-miterlimit:10;}
	.st45{fill:#1C1C1C;stroke:#000000;stroke-miterlimit:10;}
	.st46{fill:#36175E;stroke:#000000;stroke-miterlimit:10;}
	.st47{fill:#FFFFFF;stroke:#000000;stroke-miterlimit:10;}
	.st48{display:inline;}
	.st49{fill:none;stroke:#212121;stroke-width:2;stroke-miterlimit:10;}
</style>
<g
   id="BG"
   class="st0">
</g>
<g
   id="Ideas">
</g>
<g
   id="Tools">
</g>
<g
   id="Spaceship1">
	<g
   id="XMLID_5_"
   transform="rotate(90,250,249.95)">
			<g
   id="g117"
   transform="matrix(1.2947965,0,0,1.2947965,-125.17947,0.36872017)">
				
				
				
				
				
				
				
				
				
				
				
				
				
				
				
				
				
				
				
				
				
				
				
				
				
				
				
				
				
				
				
				
				
				
				
				
				
				
				
				
				
				
				
				
				
				
				
				<g
   id="g19171"><g
     id="g19131"><polygon
       class="st7"
       points="272.3,353.2 272.3,333 272.3,322 273.4,322.3 274.2,322.5 290.3,326.6 341.3,339.4 332.6,345 315.9,345 290.3,359.3 286.6,361.4 272.3,369.4 272.3,361.4 "
       id="polygon21"
       transform="matrix(1.4243496,0,0,1.4243496,-66.293655,-163.73008)" /><polygon
       class="st5"
       points="332.6,345 272.3,384 272.3,371.4 272.3,369.4 286.6,361.4 290.3,359.3 315.9,345 "
       id="polygon23"
       transform="matrix(1.4243496,0,0,1.4243496,-66.293655,-163.73008)" /><polygon
       class="st28"
       points="290.3,304.7 290.3,315.5 290.3,326.6 274.2,322.5 273.4,322.3 272.3,322 272.3,316.6 290.2,304.7 "
       id="polygon25"
       transform="matrix(1.4243496,0,0,1.4243496,-66.293655,-163.73008)" /><polygon
       class="st5"
       points="290.3,226 290.3,238.4 290.3,297.6 290.3,304 290.2,304.7 277.4,304.7 277.4,282.7 276,230 275.9,226 "
       id="polygon27"
       transform="matrix(1.4243496,0,0,1.4243496,-66.293655,-163.73008)" /><path
       class="st5"
       d="m 347.19504,127.40698 v 30.76596 h -20.65307 l -0.85461,-20.08333 -1.13948,-30.19622 -1.85165,-45.579183 -0.71218,-16.380021 -0.28487,-13.104017 4.84279,15.525411 15.66785,50.706847 v 0.142435 0 0 l 2.70626,8.688528 v 0.14244 0.14243 c 1.56678,6.12471 2.27896,12.53428 2.27896,19.22872 z"
       id="path29"
       style="stroke-width:1.42435" /><polygon
       class="st5"
       points="272.3,311.3 272.3,304.7 277.4,304.7 290.2,304.7 272.3,316.6 "
       id="polygon31"
       transform="matrix(1.4243496,0,0,1.4243496,-66.293655,-163.73008)" /><path
       class="st2"
       d="m 345.05852,108.03583 -2.70627,-8.688533 v 0 0 -0.56974 c 0.99705,2.991133 1.99409,6.124703 2.70627,9.258273 z"
       id="path33"
       style="stroke-width:1.42435" /><polygon
       class="st7"
       points="222.6,304.7 222.6,282.7 230.7,273.5 250,273.5 262.1,273.5 269.3,273.5 277.4,282.7 277.4,304.7 272.3,304.7 256.6,304.7 250,304.7 243.4,304.7 227.7,304.7 "
       id="polygon39"
       transform="matrix(1.4243496,0,0,1.4243496,-66.293655,-163.73008)" /><polygon
       class="st7"
       points="275.3,212 275.9,226 276,230 277.4,282.7 269.3,273.5 262.1,273.5 250,273.5 250,272.6 250,226 "
       id="polygon41"
       transform="matrix(1.4243496,0,0,1.4243496,-66.293655,-163.73008)" /><polygon
       class="st7"
       points="240.4,181.7 259.6,181.7 270.2,190.7 274.6,194.5 275.3,212 250,226 224.7,212 225.4,194.5 230.4,190.2 "
       id="polygon43"
       transform="matrix(1.4243496,0,0,1.4243496,-66.293655,-163.73008)" /><polygon
       class="st28"
       points="274.6,194.5 270.2,190.7 259.6,181.7 259.6,137.4 272.8,147.3 273.2,158.8 "
       id="polygon45"
       transform="matrix(1.4243496,0,0,1.4243496,-66.293655,-163.73008)" /><polygon
       class="st5"
       points="272.8,147.3 272.4,137.6 272.5,138.1 "
       id="polygon47"
       transform="matrix(1.4243496,0,0,1.4243496,-66.293655,-163.73008)" /><path
       class="st7"
       d="m 321.69918,32.26043 0.56974,13.816191 -18.65898,-14.101061 h -27.48995 l -18.65898,14.101061 v -0.427305 l 0.56974,-13.816191 V 20.438328 h 0.14244 c 0.71217,-9.115838 8.11879,-16.6648908 17.9468,-19.0862852 V 20.438328 h 27.48995 V 1.4944778 c 9.82801,2.4213944 17.23463,9.9704472 17.94681,19.0862852 V 31.97556 Z"
       id="path49"
       style="stroke-width:1.42435" /><polygon
       class="st2"
       points="272.4,137.6 272.3,137.4 272.4,137.4 "
       id="polygon51"
       transform="matrix(1.4243496,0,0,1.4243496,-66.293655,-163.73008)" /><path
       class="st39"
       d="m 321.55675,362.42467 v 2.8487 c 0,5.55496 -4.41549,9.97045 -9.97045,9.97045 h -43.72753 c -4.70036,0 -8.68854,-3.27601 -9.68558,-7.69149 v -5.12766 z"
       id="path53"
       style="stroke-width:1.42435" /><polygon
       class="st5"
       points="272.3,369.4 227.9,369.4 227.9,369.3 227.7,369.2 227.7,361.4 272.3,361.4 "
       id="polygon55"
       transform="matrix(1.4243496,0,0,1.4243496,-66.293655,-163.73008)" /><rect
       x="258.03076"
       y="339.35022"
       class="st5"
       width="63.66843"
       height="11.679667"
       id="rect57"
       style="stroke-width:1.42435" /><polygon
       class="st5"
       points="227.7,353.2 227.7,333 272,333 272.3,333 272.3,353.2 "
       id="polygon59"
       transform="matrix(1.4243496,0,0,1.4243496,-66.293655,-163.73008)" /><polygon
       class="st29"
       points="250,311.3 253.6,312.1 272.3,316.6 272.3,322 272.3,333 272,333 227.7,333 227.7,322 227.7,316.6 246.4,312.1 "
       id="polygon61"
       transform="matrix(1.4243496,0,0,1.4243496,-66.293655,-163.73008)" /><polygon
       class="st7"
       points="227.7,304.7 243.4,304.7 250,304.7 256.6,304.7 272.3,304.7 272.3,311.3 272.3,316.6 253.6,312.1 250,311.3 246.4,312.1 227.7,316.6 227.7,311.3 "
       id="polygon63"
       transform="matrix(1.4243496,0,0,1.4243496,-66.293655,-163.73008)" /><rect
       x="276.12"
       y="31.975552"
       class="st29"
       width="27.489946"
       height="63.098686"
       id="rect65"
       style="stroke-width:1.42435" /><polygon
       class="st7"
       points="250,226 250,272.6 250,273.5 230.7,273.5 222.6,282.7 224,230 224.1,226 224.7,212 "
       id="polygon67"
       transform="matrix(1.4243496,0,0,1.4243496,-66.293655,-163.73008)" /><polygon
       class="st28"
       points="227.3,147.3 240.4,137.4 240.4,181.7 230.4,190.2 225.4,194.5 225.6,190.2 "
       id="polygon69"
       transform="matrix(1.4243496,0,0,1.4243496,-66.293655,-163.73008)" /><path
       class="st2"
       d="m 258.31562,367.55233 v 15.66785 l -0.28487,-0.14244 v -17.80437 c 0,0.71218 0,1.56679 0.28487,2.27896 z"
       id="path71"
       style="stroke-width:1.42435" /><path
       class="st2"
       d="m 258.31562,362.42467 v 5.12766 c -0.14243,-0.71217 -0.28487,-1.42435 -0.28487,-2.27896 v -2.8487 z"
       id="path73"
       style="stroke-width:1.42435" /><polygon
       class="st2"
       points="227.7,369.2 227.9,369.3 227.9,369.4 227.7,369.4 "
       id="polygon75"
       transform="matrix(1.4243496,0,0,1.4243496,-66.293655,-163.73008)" /><polygon
       class="st5"
       points="227.7,369.4 227.7,371.4 227.7,383.9 208.4,371.4 167.6,345 184.2,344.9 209.7,359.1 227.6,369.2 "
       id="polygon77"
       transform="matrix(1.4243496,0,0,1.4243496,-66.293655,-163.73008)" /><polygon
       class="st2"
       points="227.7,369.4 227.6,369.2 227.7,369.2 "
       id="polygon79"
       transform="matrix(1.4243496,0,0,1.4243496,-66.293655,-163.73008)" /><polygon
       class="st7"
       points="209.7,326.6 215.5,325.1 227.7,322 227.7,333 227.7,353.2 227.7,361.4 227.7,369.2 227.6,369.2 209.7,359.1 184.2,344.9 167.6,345 158.7,339.4 "
       id="polygon81"
       transform="matrix(1.4243496,0,0,1.4243496,-66.293655,-163.73008)" /><polygon
       class="st28"
       points="227.7,322 215.5,325.1 209.7,326.6 209.7,304.7 209.9,304.9 227.7,316.6 "
       id="polygon83"
       transform="matrix(1.4243496,0,0,1.4243496,-66.293655,-163.73008)" /><polygon
       class="st5"
       points="227.7,316.6 209.9,304.9 209.8,304.7 222.6,304.7 227.7,304.7 227.7,311.3 "
       id="polygon85"
       transform="matrix(1.4243496,0,0,1.4243496,-66.293655,-163.73008)" /><polygon
       class="st5"
       points="227.3,147 227.5,138 227.6,137.4 "
       id="polygon87"
       transform="matrix(1.4243496,0,0,1.4243496,-66.293655,-163.73008)" /><path
       class="st5"
       d="m 257.74588,32.830169 -0.28487,12.961582 v 0.427305 l -2.42139,61.104594 v 0 l -0.28487,6.26714 -0.99705,24.78369 -0.85461,20.08333 h -20.65306 v -30.90839 c 0,-7.12175 0.85461,-13.95863 2.42139,-20.51064 l 2.42139,-7.833918 v -0.142435 0 L 252.76066,48.35558 Z"
       id="path89"
       style="stroke-width:1.42435" /><polygon
       class="st5"
       points="209.7,238.4 209.7,226 224.1,226 224,230 222.6,282.7 222.6,304.7 209.8,304.7 209.7,304 209.7,297.6 "
       id="polygon95"
       transform="matrix(1.4243496,0,0,1.4243496,-66.293655,-163.73008)" /><path
       class="st2"
       d="m 237.23525,98.777557 v 0.142435 0.142435 l -2.4214,7.833923 c 0.71218,-2.70626 1.42435,-5.55496 2.4214,-8.118793 z"
       id="path97"
       style="stroke-width:1.42435" /><polygon
       class="st7"
       points="209.9,304.9 209.7,304.7 209.8,304.7 "
       id="polygon99"
       transform="matrix(1.4243496,0,0,1.4243496,-66.293655,-163.73008)" /><polygon
       class="st2"
       points="209.8,304.7 209.7,304.7 209.7,304 "
       id="polygon101"
       transform="matrix(1.4243496,0,0,1.4243496,-66.293655,-163.73008)" /></g></g>
				
				
				
				
				
				
				
			</g>
			<g
   id="g249"
   transform="matrix(1.4243496,0,0,1.4243496,-66.293655,-163.73008)">
				<polyline
   class="st40"
   points="272.3,369.4 286.6,361.4 290.3,359.3 315.9,345 332.6,345 272.3,384 272.3,371.4     "
   id="polyline119"
   transform="matrix(1.2947965,0,0,1.2947965,-101.6061,-33.628217)" />
				<line
   class="st40"
   x1="250.96696"
   y1="444.66962"
   x2="250.96696"
   y2="447.25919"
   id="line121" />
				<polyline
   class="st40"
   points="272.3,353.2 272.3,361.4 227.7,361.4     "
   id="polyline123"
   transform="matrix(1.2947965,0,0,1.2947965,-101.6061,-33.628217)" />
				<polyline
   class="st40"
   points="272.3,333 272.3,353.2 227.7,353.2     "
   id="polyline125"
   transform="matrix(1.2947965,0,0,1.2947965,-101.6061,-33.628217)" />
				<polyline
   class="st40"
   points="227.7,333 227.7,353.2 227.7,361.4     "
   id="polyline127"
   transform="matrix(1.2947965,0,0,1.2947965,-101.6061,-33.628217)" />
				<path
   class="st40"
   d="m 250.96698,447.25919 c 0,5.04971 -4.01387,9.06357 -9.06357,9.06357 h -39.75025 c -4.27283,0 -7.89826,-2.97803 -8.80462,-6.9919"
   id="path129" />
				
				
				
				
				<path
   class="st40"
   d="m 272.33112,213.54843 c 1.2948,5.56762 1.9422,11.39421 1.9422,17.35027 v 28.09708"
   id="path139" />
				<path
   class="st40"
   d="m 269.87101,205.00277 c 1.03584,2.71907 1.81272,5.56763 2.46011,8.54566"
   id="path141" />
				<polyline
   class="st40"
   points="272.4,137.6 272.5,138.1 275.9,149 286.9,184.6 286.9,184.7 286.9,184.7 286.9,184.7       288.8,190.8 288.8,190.9 288.8,190.9     "
   id="polyline143"
   transform="matrix(1.2947965,0,0,1.2947965,-101.6061,-33.628217)" />
				<polyline
   class="st40"
   points="213.1,184.4 213.1,184.4 224.1,148.8 227.5,138     "
   id="polyline145"
   transform="matrix(1.2947965,0,0,1.2947965,-101.6061,-33.628217)" />
				<path
   class="st40"
   d="M 169.91272,258.99578 V 230.8987 c 0,-6.47398 0.77688,-12.68901 2.20116,-18.64507 0.6474,-2.46011 1.42427,-5.04971 2.20115,-7.38034"
   id="path147" />
				<polyline
   class="st40"
   points="290.3,326.6 290.3,315.5 290.3,304.7     "
   id="polyline149"
   transform="matrix(1.2947965,0,0,1.2947965,-101.6061,-33.628217)" />
				<line
   class="st40"
   x1="169.91272"
   y1="389.25232"
   x2="169.91272"
   y2="360.8963"
   id="line151" />
				<line
   class="st40"
   x1="274.27328"
   y1="360.8963"
   x2="274.14383"
   y2="360.8963"
   id="line153" />
				<line
   class="st40"
   x1="170.04221"
   y1="360.8963"
   x2="169.91272"
   y2="360.8963"
   id="line155" />
				<line
   class="st40"
   x1="188.5578"
   y1="258.99579"
   x2="169.91272"
   y2="258.99579"
   id="line157" />
				<line
   class="st40"
   x1="274.27328"
   y1="258.99579"
   x2="255.62825"
   y2="258.99579"
   id="line159" />
				<polyline
   class="st40"
   points="272.4,137.6 272.4,137.4 272.3,137.4     "
   id="polyline161"
   transform="matrix(1.2947965,0,0,1.2947965,-101.6061,-33.628217)" />
				<polyline
   class="st40"
   points="275.9,226 275.3,212 274.5,190.8 273.2,158.8 272.8,147.3     "
   id="polyline163"
   transform="matrix(1.2947965,0,0,1.2947965,-101.6061,-33.628217)" />
				<polyline
   class="st40"
   points="227.7,322 215.5,325.1 209.7,326.6 158.7,339.4 227.7,384 227.7,383.9     "
   id="polyline165"
   transform="matrix(1.2947965,0,0,1.2947965,-101.6061,-33.628217)" />
				<line
   class="st40"
   x1="193.21906"
   y1="444.41068"
   x2="193.21906"
   y2="434.31125"
   id="line167" />
				<line
   class="st40"
   x1="222.09303"
   y1="319.33331"
   x2="222.09303"
   y2="258.99579"
   id="line169" />
				<polyline
   class="st40"
   points="290.3,326.6 341.3,339.4 332.6,345     "
   id="polyline171"
   transform="matrix(1.2947965,0,0,1.2947965,-101.6061,-33.628217)" />
				<line
   class="st40"
   x1="250.96696"
   y1="444.66962"
   x2="250.96696"
   y2="434.31125"
   id="line173" />
				
				
				<polyline
   class="st40"
   points="272.3,322 273.4,322.3 274.2,322.5 290.3,326.6     "
   id="polyline179"
   transform="matrix(1.2947965,0,0,1.2947965,-101.6061,-33.628217)" />
				<polyline
   class="st40"
   points="272.3,333 272.3,322 272.3,316.6     "
   id="polyline181"
   transform="matrix(1.2947965,0,0,1.2947965,-101.6061,-33.628217)" />
				<polyline
   class="st40"
   points="227.7,316.6 227.7,322 227.7,333     "
   id="polyline183"
   transform="matrix(1.2947965,0,0,1.2947965,-101.6061,-33.628217)" />
				<polyline
   class="st40"
   points="227.7,304.7 227.7,311.3 227.7,316.6     "
   id="polyline185"
   transform="matrix(1.2947965,0,0,1.2947965,-101.6061,-33.628217)" />
				<polyline
   class="st40"
   points="272.3,316.6 272.3,311.3 272.3,304.7     "
   id="polyline187"
   transform="matrix(1.2947965,0,0,1.2947965,-101.6061,-33.628217)" />
				<line
   class="st40"
   x1="250.57854"
   y1="397.53903"
   x2="193.21906"
   y2="397.53903"
   id="line189" />
				<line
   class="st40"
   x1="193.47801"
   y1="444.66962"
   x2="250.96696"
   y2="444.66962"
   id="line191" />
				<polygon
   class="st40"
   points="227.9,369.3 227.9,369.4 227.9,373 227.9,384 227.7,383.9 208.4,371.4 167.6,345 184.2,344.9 209.7,359.1 227.6,369.2 227.7,369.2 "
   id="polygon193"
   transform="matrix(1.2947965,0,0,1.2947965,-101.6061,-33.628217)" />
				<polyline
   class="st40"
   points="209.7,304 209.8,304.7 222.6,304.7     "
   id="polyline195"
   transform="matrix(1.2947965,0,0,1.2947965,-101.6061,-33.628217)" />
				<polyline
   class="st40"
   points="277.4,304.7 277.4,282.7 269.3,273.5 262.1,273.5 250,273.5 230.7,273.5 222.6,282.7       222.6,304.7 227.7,304.7 243.4,304.7 250,304.7 256.6,304.7     "
   id="polyline197"
   transform="matrix(1.2947965,0,0,1.2947965,-101.6061,-33.628217)" />
				<polyline
   class="st40"
   points="290.3,304 290.2,304.7 277.4,304.7 272.3,304.7 256.6,304.7     "
   id="polyline199"
   transform="matrix(1.2947965,0,0,1.2947965,-101.6061,-33.628217)" />
				<line
   class="st40"
   x1="234.52309"
   y1="144.27681"
   x2="234.52309"
   y2="201.63631"
   id="line201" />
				<line
   class="st40"
   x1="209.66298"
   y1="144.27681"
   x2="209.66298"
   y2="201.63631"
   id="line203" />
				<polyline
   class="st40"
   points="227.3,147.3 225.6,190.2 225.6,190.2 225.4,194.5     "
   id="polyline205"
   transform="matrix(1.2947965,0,0,1.2947965,-101.6061,-33.628217)" />
				<polyline
   class="st40"
   points="224.7,212 225.4,194.5 230.4,190.2 230.4,190.2 240.4,181.7 259.6,181.7 270.2,190.7       274.6,194.5 275.3,212     "
   id="polyline207"
   transform="matrix(1.2947965,0,0,1.2947965,-101.6061,-33.628217)" />
				<polyline
   class="st40"
   points="277.4,282.7 276,230 275.9,226     "
   id="polyline209"
   transform="matrix(1.2947965,0,0,1.2947965,-101.6061,-33.628217)" />
				<polyline
   class="st40"
   points="222.6,282.7 224,230 224.1,226 224.7,212 250,226 275.3,212     "
   id="polyline211"
   transform="matrix(1.2947965,0,0,1.2947965,-101.6061,-33.628217)" />
				<polyline
   class="st40"
   points="290.2,304.7 272.3,316.6 253.6,312.1 250,311.3 246.4,312.1 227.7,316.6 209.9,304.9       209.7,304.7     "
   id="polyline213"
   transform="matrix(1.2947965,0,0,1.2947965,-101.6061,-33.628217)" />
				<path
   class="st40"
   d="m 251.61438,157.09531 -0.25896,-11.91213 -0.25896,-11.26473 c -0.77688,-8.2867 -7.38034,-15.14912 -16.31443,-17.35027 v 17.35027 h -24.98957 v -17.35027 c -8.9341,2.20115 -15.66704,9.06357 -16.31444,17.35027 h -0.12948 l -0.25896,11.13525 -0.25896,11.78265 v 0.38843 l 16.96184,-12.81848 h 24.98957 z"
   id="path215" />
				
				
				
				
				
				
				
				
				
				
				
				
				
				
				
				
			</g>
		</g>
</g>
<g
   id="Spaceship2"
   class="st0">
	<g
   class="st48"
   id="g408">
		<g
   id="XMLID_12_">
			<g
   id="g321">
				<path
   class="st6"
   d="M282.2,315.4c5.1-21.3,8.2-47.8,8.2-76.6c0-5.9-0.1-11.7-0.4-17.4l1.3-1.1c29.5-25.7,71-28.3,99.3-8.3      c27.6,19.7,39.3,59,27.5,86.8c-2.1,5-5.6,10.8-11.6,16.6c1.5-4.6,2.4-9.6,2.4-14.8c0-25.5-20.2-46.2-45.2-46.2      s-45.2,20.7-45.2,46.2c0,5.2,0.9,10.2,2.4,14.8H282.2z"
   id="path255" />
				<path
   class="st7"
   d="M375,169.7c-3.7-0.6-7.6-0.9-11.5-0.9H355v-26.3h20V169.7z"
   id="path257" />
				<path
   class="st5"
   d="M375,142.6h-20v-1.1c2.5-2.5,3.9-3.9,6.5-6.5h7.1c2.5,2.5,3.9,3.9,6.5,6.5V142.6z"
   id="path259" />
				<polygon
   class="st5"
   points="373.3,366.5 358.9,374.8 305.2,351.7 329.3,340.4     "
   id="polygon261" />
				<polygon
   class="st28"
   points="373.3,366.5 329.3,340.4 320.9,315.4     "
   id="polygon263" />
				<rect
   x="315.8"
   y="150.1"
   class="st7"
   width="15.8"
   height="18.7"
   id="rect265" />
				<path
   class="st5"
   d="M331.6,150h-15.8v-2.5c1.9-1.9,3-3,5-4.9h5.9c1.9,1.9,3,3,4.9,4.9V150z"
   id="path267" />
				<polygon
   class="st29"
   points="329.3,340.4 305.2,351.7 275.4,365.8 251,377.3 249,377.3 224.6,365.8 194.8,351.7 170.8,340.4       250,358.2     "
   id="polygon269" />
				<polygon
   class="st7"
   points="305.2,351.7 305.2,382.5 275.4,382.5 275.4,365.8     "
   id="polygon271" />
				<path
   class="st29"
   d="M290,221.4c-0.8-19.2-3-37.1-6.3-52.6h32.1h15.8H355h8.5c3.9,0,7.7,0.3,11.5,0.9      c34.3,5.6,60.5,36,60.5,72.7v44.8c0,15.5-12.5,28.1-28,28.1h-1.1c6-5.8,9.5-11.6,11.6-16.6c11.8-27.7,0.1-67.1-27.5-86.8      c-28.2-20.1-69.8-17.4-99.3,8.3L290,221.4z"
   id="path273" />
				<path
   class="st5"
   d="M275.4,382.5h29.8v1.8c0,2.2-1.8,3.9-3.9,3.9h-21.9c-2.2,0-3.9-1.8-3.9-3.9V382.5z"
   id="path275" />
				<path
   class="st7"
   d="M227.6,186c0,3.6,0.9,7.1,2.5,10.1l19.9-26.9l19.9,26.9c1.6-3,2.5-6.4,2.5-10.1v-15.4      c0-11.9-9.6-21.5-21.5-21.5H250h-0.9c-11.9,0-21.5,9.6-21.5,21.5V186z M216.3,168.8c3.2-15.1,7.3-27.9,12.2-37.6      c5.3,5.8,13,9.5,21.5,9.5c8.5,0,16.2-3.7,21.5-9.5c4.9,9.6,9,22.5,12.2,37.6c3.3,15.5,5.5,33.3,6.3,52.6      c0.3,5.7,0.4,11.5,0.4,17.4c0,28.7-3,55.3-8.2,76.6h-12.1v-92.1c0-5.5-2.3-10.6-5.9-14.2c-3.6-3.6-8.7-5.9-14.2-5.9      c-11.1,0-20.1,9-20.1,20.1v92.1h-12.1c-5.1-21.3-8.2-47.8-8.2-76.6c0-5.9,0.1-11.7,0.4-17.4      C210.9,202.2,213.1,184.3,216.3,168.8z"
   id="path277" />
				<path
   class="st29"
   d="M250,203.2c5.5,0,10.6,2.2,14.2,5.9c3.6,3.6,5.9,8.7,5.9,14.2l-20.1,39l-20.1-39      C229.9,212.2,238.9,203.2,250,203.2z"
   id="path279" />
				<path
   class="st6"
   d="M266.5,333.9c2.3,0,4.1,1.8,4.1,4.1v1.3c0,2.3-1.8,4.1-4.1,4.1h-33c-2.3,0-4.1-1.8-4.1-4.1V338      c0-2.3,1.8-4.1,4.1-4.1h5.4h22.2H266.5z"
   id="path281" />
				<path
   class="st6"
   d="M261.1,323.8c2.3,0,4.1,1.8,4.1,4.1v1.9c0,2.3-1.8,4.1-4.1,4.1h-22.2c-2.3,0-4.1-1.8-4.1-4.1v-1.9      c0-2.3,1.8-4.1,4.1-4.1H261.1z"
   id="path283" />
				<path
   class="st6"
   d="M254.1,282c0-2.3,1.8-4.1,4.1-4.1c1.1,0,2.2,0.5,2.9,1.2c0.7,0.8,1.2,1.8,1.2,2.9v18.3      c0,2.3-1.8,4.1-4.1,4.1h0c-2.3,0-4.1-1.8-4.1-4.1V282z"
   id="path285" />
				<path
   class="st29"
   d="M250.9,149.1c11.9,0,21.5,9.6,21.5,21.5V186c0,3.6-0.9,7.1-2.5,10.1L250,169.2v-20H250.9z"
   id="path287" />
				<path
   class="st8"
   d="M250,140.8c-8.5,0-16.2-3.7-21.5-9.5c6.2-12.3,13.6-19.5,21.5-19.5c7.9,0,15.3,7.1,21.5,19.5      C266.2,137.1,258.5,140.8,250,140.8z"
   id="path289" />
				<path
   class="st6"
   d="M250,304.4c-2.3,0-4.1-1.8-4.1-4.1V282c0-2.3,1.8-4.1,4.1-4.1c1.1,0,2.2,0.5,2.9,1.2      c0.7,0.8,1.2,1.8,1.2,2.9v18.3C254.1,302.6,252.3,304.4,250,304.4z"
   id="path291" />
				<path
   class="st29"
   d="M250,149.1v20l-19.9,26.9c-1.6-3-2.5-6.4-2.5-10.1v-15.4c0-11.9,9.6-21.5,21.5-21.5H250z"
   id="path293" />
				<path
   class="st6"
   d="M237.7,282c0-2.3,1.8-4.1,4.1-4.1h0c2.3,0,4.1,1.8,4.1,4.1v18.3c0,2.3-1.8,4.1-4.1,4.1h0      c-2.3,0-4.1-1.8-4.1-4.1V282z"
   id="path295" />
				<path
   class="st8"
   d="M237.7,300.3c0,2.3,1.8,4.1,4.1,4.1h0c2.3,0,4.1-1.8,4.1-4.1c0,2.3,1.8,4.1,4.1,4.1s4.1-1.8,4.1-4.1      c0,2.3,1.8,4.1,4.1,4.1h0c2.3,0,4.1-1.8,4.1-4.1V282c0-1.1-0.5-2.2-1.2-2.9c-0.8-0.7-1.8-1.2-2.9-1.2c-2.3,0-4.1,1.8-4.1,4.1      c0-1.1-0.5-2.2-1.2-2.9c-0.8-0.7-1.8-1.2-2.9-1.2c-2.3,0-4.1,1.8-4.1,4.1c0-2.3-1.8-4.1-4.1-4.1h0c-2.3,0-4.1,1.8-4.1,4.1V300.3      z M270.1,223.3v92.1h-40.2v-92.1l20.1,39L270.1,223.3z"
   id="path297" />
				<path
   class="st8"
   d="M229.4,338v1.3c0,2.3,1.8,4.1,4.1,4.1h33c2.3,0,4.1-1.8,4.1-4.1V338c0-2.3-1.8-4.1-4.1-4.1h-5.4      c2.3,0,4.1-1.8,4.1-4.1v-1.9c0-2.3-1.8-4.1-4.1-4.1h-22.2c-2.3,0-4.1,1.8-4.1,4.1v1.9c0,2.3,1.8,4.1,4.1,4.1h-5.4      C231.2,333.9,229.4,335.7,229.4,338z M320.9,315.4l8.4,25L250,358.2l-79.3-17.8l8.4-25h38.7h12.1h40.2h12.1H320.9z"
   id="path299" />
				<polygon
   class="st7"
   points="224.6,365.8 224.6,382.5 194.8,382.5 194.8,351.7     "
   id="polygon301" />
				<path
   class="st6"
   d="M209.7,238.8c0,28.7,3,55.3,8.2,76.6h-38.7c1.5-4.6,2.4-9.6,2.4-14.8c0-25.5-20.2-46.2-45.2-46.2      s-45.2,20.7-45.2,46.2c0,5.2,0.8,10.2,2.4,14.8c-6-5.8-9.5-11.6-11.6-16.6c-11.8-27.7-0.2-67.1,27.5-86.8      c28.2-20.1,69.8-17.4,99.3,8.3l1.3,1.1C209.8,227.1,209.7,232.9,209.7,238.8z"
   id="path303" />
				<path
   class="st5"
   d="M224.6,384.3c0,2.2-1.8,3.9-3.9,3.9h-21.9c-2.2,0-3.9-1.8-3.9-3.9v-1.8h29.8V384.3z"
   id="path305" />
				<polygon
   class="st5"
   points="194.8,351.7 141.1,374.8 126.7,366.5 170.8,340.4     "
   id="polygon307" />
				<rect
   x="168.4"
   y="150.1"
   class="st7"
   width="15.8"
   height="18.7"
   id="rect309" />
				<path
   class="st5"
   d="M179.3,142.6c1.9,1.9,3,3,4.9,4.9v2.5h-15.8v-2.5c1.9-1.9,3-3,4.9-4.9H179.3z"
   id="path311" />
				<polygon
   class="st28"
   points="179.1,315.4 170.8,340.4 126.7,366.5     "
   id="polygon313" />
				<path
   class="st5"
   d="M138.5,135c2.5,2.5,3.9,3.9,6.5,6.5v1.1h-20v-1.1c2.5-2.5,3.9-3.9,6.5-6.5H138.5z"
   id="path315" />
				<path
   class="st7"
   d="M136.5,168.8c-3.9,0-7.7,0.3-11.5,0.9v-27.2h20v26.3H136.5z"
   id="path317" />
				<path
   class="st29"
   d="M216.3,168.8c-3.3,15.5-5.5,33.3-6.3,52.6l-1.3-1.1c-29.5-25.7-71-28.3-99.3-8.3      c-27.7,19.7-39.3,59-27.5,86.8c2.1,5,5.6,10.8,11.6,16.6h-1.1c-15.5,0-28-12.6-28-28.1v-44.8c0-36.7,26.2-67.1,60.5-72.7      c3.7-0.6,7.6-0.9,11.5-0.9h8.5h23.4h15.8H216.3z"
   id="path319" />
			</g>
			<g
   id="g405">
				<path
   class="st49"
   d="M282.2,315.4c5.1-21.3,8.2-47.8,8.2-76.6c0-5.9-0.1-11.7-0.4-17.4c-0.8-19.2-3-37.1-6.3-52.6      c-3.2-15.1-7.3-27.9-12.2-37.6c-6.2-12.3-13.6-19.5-21.5-19.5c-7.9,0-15.3,7.1-21.5,19.5c-4.9,9.6-9,22.5-12.2,37.6      c-3.3,15.5-5.5,33.3-6.3,52.6c-0.3,5.7-0.4,11.5-0.4,17.4c0,28.7,3,55.3,8.2,76.6"
   id="path323" />
				<path
   class="st49"
   d="M270.1,315.4h12.1h38.7c-1.5-4.6-2.4-9.6-2.4-14.8c0-25.5,20.2-46.2,45.2-46.2s45.2,20.7,45.2,46.2      c0,5.2-0.9,10.2-2.4,14.8h1.1c15.5,0,28-12.6,28-28.1v-44.8c0-36.7-26.2-67.1-60.5-72.7c-3.7-0.6-7.6-0.9-11.5-0.9H355h-23.4      h-15.8h-32.1"
   id="path325" />
				<path
   class="st49"
   d="M216.3,168.8h-32.1h-15.8H145h-8.5c-3.9,0-7.7,0.3-11.5,0.9c-34.3,5.6-60.5,36-60.5,72.7v44.8      c0,15.5,12.5,28.1,28,28.1h1.1c-1.5-4.6-2.4-9.6-2.4-14.8c0-25.5,20.2-46.2,45.2-46.2s45.2,20.7,45.2,46.2      c0,5.2-0.9,10.2-2.4,14.8h38.7h12.1"
   id="path327" />
				<polyline
   class="st49"
   points="194.8,351.7 170.8,340.4 179.1,315.4     "
   id="polyline329" />
				<polyline
   class="st49"
   points="320.9,315.4 329.3,340.4 305.2,351.7 275.4,365.8 251,377.3 249,377.3 224.6,365.8 194.8,351.7           "
   id="polyline331" />
				<line
   class="st49"
   x1="194.8"
   y1="382.5"
   x2="194.8"
   y2="351.7"
   id="line333" />
				<line
   class="st49"
   x1="224.6"
   y1="365.8"
   x2="224.6"
   y2="382.5"
   id="line335" />
				<line
   class="st49"
   x1="275.4"
   y1="382.5"
   x2="275.4"
   y2="365.8"
   id="line337" />
				<line
   class="st49"
   x1="305.2"
   y1="351.7"
   x2="305.2"
   y2="382.5"
   id="line339" />
				<polyline
   class="st49"
   points="320.9,315.4 373.3,366.5 358.9,374.8 305.2,351.7     "
   id="polyline341" />
				<polyline
   class="st49"
   points="179.1,315.4 126.7,366.5 141.1,374.8 194.8,351.7     "
   id="polyline343" />
				<path
   class="st49"
   d="M93.6,315.4c-6-5.8-9.5-11.6-11.6-16.6c-11.8-27.7-0.2-67.1,27.5-86.8c28.2-20.1,69.8-17.4,99.3,8.3      l1.3,1.1"
   id="path345" />
				<path
   class="st49"
   d="M406.4,315.4c6-5.8,9.5-11.6,11.6-16.6c11.8-27.7,0.1-67.1-27.5-86.8c-28.2-20.1-69.8-17.4-99.3,8.3      l-1.3,1.1"
   id="path347" />
				<path
   class="st49"
   d="M228.5,131.3c5.3,5.8,13,9.5,21.5,9.5c8.5,0,16.2-3.7,21.5-9.5"
   id="path349" />
				<path
   class="st49"
   d="M250,169.2l19.9,26.9c1.6-3,2.5-6.4,2.5-10.1v-15.4c0-11.9-9.6-21.5-21.5-21.5H250h-0.9      c-11.9,0-21.5,9.6-21.5,21.5V186c0,3.6,0.9,7.1,2.5,10.1L250,169.2z"
   id="path351" />
				<line
   class="st49"
   x1="250"
   y1="169.2"
   x2="250"
   y2="149.1"
   id="line353" />
				<path
   class="st49"
   d="M270.1,315.4h-40.2v-92.1c0-11.1,9-20.1,20.1-20.1c5.5,0,10.6,2.2,14.2,5.9c3.6,3.6,5.9,8.7,5.9,14.2      V315.4z"
   id="path355" />
				<polyline
   class="st49"
   points="229.9,223.3 250,262.3 270.1,223.3     "
   id="polyline357" />
				<path
   class="st49"
   d="M245.9,282c0-2.3,1.8-4.1,4.1-4.1c1.1,0,2.2,0.5,2.9,1.2c0.7,0.8,1.2,1.8,1.2,2.9"
   id="path359" />
				<path
   class="st49"
   d="M254.1,300.3c0,2.3-1.8,4.1-4.1,4.1s-4.1-1.8-4.1-4.1"
   id="path361" />
				<path
   class="st49"
   d="M254.1,282c0-2.3,1.8-4.1,4.1-4.1c1.1,0,2.2,0.5,2.9,1.2c0.7,0.8,1.2,1.8,1.2,2.9v18.3      c0,2.3-1.8,4.1-4.1,4.1h0c-2.3,0-4.1-1.8-4.1-4.1V282z"
   id="path363" />
				<path
   class="st49"
   d="M245.9,300.3c0,2.3-1.8,4.1-4.1,4.1h0c-2.3,0-4.1-1.8-4.1-4.1V282c0-2.3,1.8-4.1,4.1-4.1h0      c2.3,0,4.1,1.8,4.1,4.1V300.3z"
   id="path365" />
				<line
   class="st49"
   x1="145"
   y1="142.6"
   x2="145"
   y2="168.8"
   id="line367" />
				<line
   class="st49"
   x1="125"
   y1="169.7"
   x2="125"
   y2="142.6"
   id="line369" />
				<line
   class="st49"
   x1="184.2"
   y1="150.1"
   x2="184.2"
   y2="168.8"
   id="line371" />
				<line
   class="st49"
   x1="168.4"
   y1="150"
   x2="184.2"
   y2="150"
   id="line373" />
				<line
   class="st49"
   x1="168.4"
   y1="168.8"
   x2="168.4"
   y2="150.1"
   id="line375" />
				<path
   class="st49"
   d="M145,142.6v-1.1c-2.5-2.5-3.9-3.9-6.5-6.5h-7c-2.5,2.5-3.9,3.9-6.5,6.5v1.1H145z"
   id="path377" />
				<path
   class="st49"
   d="M184.2,150v-2.5c-1.9-1.9-3-3-4.9-4.9h-5.9c-1.9,1.9-3,3-4.9,4.9v2.5v0.1L184.2,150L184.2,150z"
   id="path379" />
				<line
   class="st49"
   x1="375"
   y1="142.6"
   x2="375"
   y2="169.7"
   id="line381" />
				<line
   class="st49"
   x1="355"
   y1="168.8"
   x2="355"
   y2="142.6"
   id="line383" />
				<line
   class="st49"
   x1="331.6"
   y1="150.1"
   x2="331.6"
   y2="168.8"
   id="line385" />
				<line
   class="st49"
   x1="315.8"
   y1="150"
   x2="331.6"
   y2="150"
   id="line387" />
				<line
   class="st49"
   x1="315.8"
   y1="168.8"
   x2="315.8"
   y2="150.1"
   id="line389" />
				<path
   class="st49"
   d="M355,142.6v-1.1c2.5-2.5,3.9-3.9,6.5-6.5h7.1c2.5,2.5,3.9,3.9,6.5,6.5v1.1H355z"
   id="path391" />
				<path
   class="st49"
   d="M315.8,150v-2.5c1.9-1.9,3-3,5-4.9h5.9c1.9,1.9,3,3,4.9,4.9v2.5v0.1L315.8,150L315.8,150z"
   id="path393" />
				<path
   class="st49"
   d="M305.2,382.5v1.8c0,2.2-1.8,3.9-3.9,3.9h-21.9c-2.2,0-3.9-1.8-3.9-3.9v-1.8H305.2z"
   id="path395" />
				<path
   class="st49"
   d="M224.6,382.5v1.8c0,2.2-1.8,3.9-3.9,3.9h-21.9c-2.2,0-3.9-1.8-3.9-3.9v-1.8H224.6z"
   id="path397" />
				<polyline
   class="st49"
   points="126.7,366.5 170.8,340.4 250,358.2 329.3,340.4 373.3,366.5     "
   id="polyline399" />
				<path
   class="st49"
   d="M238.9,333.9c-2.3,0-4.1-1.8-4.1-4.1v-1.9c0-2.3,1.8-4.1,4.1-4.1h22.2c2.3,0,4.1,1.8,4.1,4.1v1.9      c0,2.3-1.8,4.1-4.1,4.1"
   id="path401" />
				<path
   class="st49"
   d="M261.1,333.9h5.4c2.3,0,4.1,1.8,4.1,4.1v1.3c0,2.3-1.8,4.1-4.1,4.1h-33c-2.3,0-4.1-1.8-4.1-4.1V338      c0-2.3,1.8-4.1,4.1-4.1h5.4H261.1z"
   id="path403" />
			</g>
		</g>
	</g>
</g>
</svg>
